# xmcd
#
# Track frame offsets:
#	150
#	21295
#	41685
#	64500
#	81970
#	98515
#	109755
#	130755
#
# Disc length: 1947 seconds
#
# Revision: 2
# Processed by: cddbd v1.5.1PL0 Copyright (c) Steve Scherf et al.
# Submitted via: EasyCDDAExtractor 5.1.0
#
DISCID=5d079908
DTITLE=Alice Cooper - The Walker Theatre Winnipeg 21-09-99 Disc 2
DYEAR=1999
DGENRE=Hard Rock
TTITLE0=Nothing's Free
TTITLE1=Cleansed By Fire
TTITLE2=Poison
TTITLE3=Cold Ethyl
TTITLE4=Unfinished Sweet
TTITLE5=Scool's Out
TTITLE6=Sturday Night Alright
TTITLE7=Under My Wheels
EXTD=
EXTT0=
EXTT1=
EXTT2=
EXTT3=
EXTT4=
EXTT5=
EXTT6=
EXTT7=
PLAYORDER=
